<?xml version="1.0" encoding="UTF-8"?>
<svg xmlns="http://www.w3.org/2000/svg" version="1.1" width="500" height="500" viewBox="0 0 500 500"><rect x="0" y="0" width="500" height="500" fill="#ffffff"/><g transform="scale(20)"><g transform="translate(0,0)"><path fill-rule="evenodd" d="M9 0L9 1L8 1L8 2L9 2L9 3L8 3L8 4L10 4L10 7L11 7L11 4L12 4L12 5L13 5L13 4L16 4L16 5L15 5L15 6L14 6L14 8L13 8L13 6L12 6L12 9L14 9L14 11L15 11L15 13L16 13L16 14L14 14L14 13L12 13L12 11L13 11L13 10L11 10L11 11L10 11L10 9L11 9L11 8L6 8L6 9L5 9L5 8L0 8L0 10L1 10L1 9L2 9L2 11L1 11L1 13L0 13L0 17L1 17L1 13L2 13L2 16L3 16L3 15L5 15L5 13L7 13L7 14L6 14L6 15L7 15L7 16L4 16L4 17L8 17L8 19L9 19L9 20L8 20L8 25L9 25L9 23L10 23L10 25L11 25L11 21L12 21L12 22L13 22L13 23L12 23L12 25L13 25L13 24L14 24L14 25L15 25L15 24L17 24L17 23L18 23L18 24L19 24L19 25L20 25L20 23L19 23L19 21L20 21L20 22L21 22L21 21L22 21L22 22L24 22L24 24L21 24L21 25L25 25L25 16L24 16L24 15L25 15L25 14L22 14L22 13L25 13L25 10L23 10L23 9L24 9L24 8L23 8L23 9L22 9L22 8L21 8L21 9L22 9L22 10L21 10L21 11L22 11L22 10L23 10L23 12L20 12L20 11L19 11L19 12L18 12L18 10L17 10L17 9L18 9L18 8L17 8L17 9L16 9L16 7L17 7L17 0L16 0L16 1L15 1L15 0L14 0L14 1L11 1L11 2L10 2L10 0ZM14 1L14 2L12 2L12 4L13 4L13 3L15 3L15 1ZM10 3L10 4L11 4L11 3ZM8 5L8 7L9 7L9 5ZM15 6L15 7L16 7L16 6ZM19 8L19 10L20 10L20 8ZM3 9L3 11L4 11L4 12L2 12L2 13L3 13L3 14L4 14L4 12L7 12L7 11L8 11L8 13L9 13L9 14L10 14L10 15L11 15L11 17L10 17L10 16L9 16L9 15L8 15L8 14L7 14L7 15L8 15L8 16L9 16L9 19L10 19L10 20L11 20L11 18L13 18L13 19L12 19L12 21L15 21L15 23L14 23L14 24L15 24L15 23L17 23L17 21L15 21L15 20L16 20L16 17L14 17L14 16L18 16L18 14L19 14L19 16L23 16L23 15L22 15L22 14L21 14L21 13L20 13L20 14L19 14L19 13L18 13L18 12L17 12L17 15L14 15L14 16L13 16L13 17L12 17L12 15L13 15L13 14L12 14L12 13L11 13L11 12L10 12L10 13L9 13L9 11L8 11L8 9L6 9L6 10L4 10L4 9ZM15 9L15 10L16 10L16 11L17 11L17 10L16 10L16 9ZM6 10L6 11L7 11L7 10ZM10 13L10 14L11 14L11 13ZM17 17L17 20L20 20L20 17ZM21 17L21 20L24 20L24 19L22 19L22 17ZM18 18L18 19L19 19L19 18ZM14 19L14 20L15 20L15 19ZM0 0L0 7L7 7L7 0ZM1 1L1 6L6 6L6 1ZM2 2L2 5L5 5L5 2ZM18 0L18 7L25 7L25 0ZM19 1L19 6L24 6L24 1ZM20 2L20 5L23 5L23 2ZM0 18L0 25L7 25L7 18ZM1 19L1 24L6 24L6 19ZM2 20L2 23L5 23L5 20Z" fill="#000000"/></g></g></svg>
