<?xml version="1.0" encoding="UTF-8"?>
<svg xmlns="http://www.w3.org/2000/svg" version="1.1" width="500" height="500" viewBox="0 0 500 500"><rect x="0" y="0" width="500" height="500" fill="#ffffff"/><g transform="scale(13.514)"><g transform="translate(0,0)"><path fill-rule="evenodd" d="M9 0L9 1L8 1L8 2L9 2L9 3L8 3L8 4L10 4L10 7L11 7L11 4L12 4L12 5L13 5L13 6L12 6L12 9L13 9L13 8L14 8L14 9L15 9L15 10L17 10L17 11L16 11L16 13L12 13L12 11L13 11L13 10L11 10L11 12L10 12L10 11L9 11L9 9L11 9L11 8L6 8L6 9L5 9L5 8L0 8L0 9L5 9L5 11L4 11L4 12L3 12L3 11L2 11L2 10L1 10L1 11L2 11L2 13L1 13L1 14L2 14L2 13L4 13L4 12L5 12L5 11L7 11L7 12L6 12L6 13L5 13L5 14L6 14L6 15L7 15L7 16L6 16L6 17L8 17L8 20L9 20L9 21L8 21L8 22L10 22L10 23L7 23L7 22L5 22L5 24L3 24L3 23L2 23L2 21L3 21L3 22L4 22L4 21L5 21L5 20L6 20L6 21L7 21L7 20L6 20L6 19L7 19L7 18L6 18L6 19L5 19L5 20L3 20L3 15L4 15L4 14L3 14L3 15L1 15L1 16L2 16L2 18L1 18L1 17L0 17L0 18L1 18L1 19L2 19L2 21L1 21L1 22L0 22L0 23L1 23L1 25L0 25L0 29L1 29L1 26L2 26L2 29L3 29L3 28L5 28L5 29L7 29L7 28L6 28L6 27L7 27L7 26L8 26L8 27L9 27L9 26L10 26L10 27L11 27L11 29L10 29L10 31L9 31L9 29L8 29L8 31L9 31L9 32L8 32L8 37L9 37L9 34L11 34L11 37L12 37L12 35L13 35L13 34L11 34L11 32L10 32L10 31L11 31L11 29L12 29L12 30L13 30L13 31L12 31L12 33L13 33L13 32L14 32L14 33L16 33L16 34L15 34L15 35L14 35L14 36L15 36L15 37L16 37L16 36L17 36L17 37L18 37L18 36L17 36L17 35L18 35L18 34L21 34L21 36L23 36L23 37L27 37L27 36L23 36L23 34L24 34L24 35L26 35L26 34L24 34L24 33L27 33L27 34L28 34L28 33L29 33L29 34L31 34L31 37L32 37L32 34L33 34L33 33L34 33L34 35L36 35L36 36L34 36L34 37L37 37L37 33L36 33L36 31L37 31L37 28L36 28L36 27L37 27L37 26L35 26L35 25L37 25L37 22L35 22L35 24L32 24L32 25L34 25L34 27L33 27L33 26L32 26L32 27L33 27L33 28L31 28L31 26L30 26L30 27L28 27L28 26L27 26L27 25L28 25L28 22L30 22L30 23L31 23L31 22L32 22L32 20L31 20L31 18L32 18L32 19L34 19L34 17L35 17L35 16L36 16L36 17L37 17L37 16L36 16L36 15L37 15L37 14L35 14L35 16L34 16L34 15L33 15L33 16L32 16L32 13L36 13L36 11L37 11L37 10L35 10L35 9L36 9L36 8L35 8L35 9L34 9L34 8L33 8L33 9L34 9L34 10L35 10L35 12L31 12L31 11L33 11L33 10L32 10L32 8L31 8L31 10L30 10L30 8L29 8L29 10L27 10L27 12L23 12L23 10L24 10L24 11L25 11L25 10L24 10L24 9L26 9L26 8L27 8L27 9L28 9L28 7L29 7L29 6L28 6L28 5L29 5L29 4L28 4L28 2L29 2L29 0L28 0L28 1L27 1L27 0L26 0L26 1L24 1L24 0L18 0L18 1L17 1L17 0L15 0L15 1L17 1L17 2L16 2L16 4L12 4L12 2L13 2L13 1L11 1L11 2L10 2L10 0ZM19 1L19 2L17 2L17 3L18 3L18 4L19 4L19 3L20 3L20 4L22 4L22 6L21 6L21 5L19 5L19 7L18 7L18 5L17 5L17 4L16 4L16 5L17 5L17 7L16 7L16 6L15 6L15 7L14 7L14 6L13 6L13 7L14 7L14 8L15 8L15 7L16 7L16 9L17 9L17 8L18 8L18 9L19 9L19 8L20 8L20 9L22 9L22 10L23 10L23 9L24 9L24 8L26 8L26 5L28 5L28 4L25 4L25 3L27 3L27 1L26 1L26 2L24 2L24 1L21 1L21 2L20 2L20 1ZM14 2L14 3L15 3L15 2ZM21 2L21 3L23 3L23 2ZM10 3L10 4L11 4L11 3ZM23 4L23 5L24 5L24 4ZM8 5L8 7L9 7L9 5ZM20 6L20 8L22 8L22 9L23 9L23 8L22 8L22 7L23 7L23 6L22 6L22 7L21 7L21 6ZM24 6L24 7L25 7L25 6ZM27 6L27 7L28 7L28 6ZM6 9L6 10L8 10L8 9ZM18 10L18 11L17 11L17 12L18 12L18 13L16 13L16 14L17 14L17 15L16 15L16 17L17 17L17 18L15 18L15 17L14 17L14 16L15 16L15 15L14 15L14 16L13 16L13 17L12 17L12 15L13 15L13 14L12 14L12 13L11 13L11 14L10 14L10 15L11 15L11 16L10 16L10 17L9 17L9 16L8 16L8 17L9 17L9 18L10 18L10 20L11 20L11 18L13 18L13 19L12 19L12 21L11 21L11 23L10 23L10 24L9 24L9 25L8 25L8 24L7 24L7 23L6 23L6 24L7 24L7 25L6 25L6 26L5 26L5 25L2 25L2 26L3 26L3 27L6 27L6 26L7 26L7 25L8 25L8 26L9 26L9 25L10 25L10 26L13 26L13 27L12 27L12 29L16 29L16 30L17 30L17 28L18 28L18 29L20 29L20 26L18 26L18 25L20 25L20 24L21 24L21 27L22 27L22 26L23 26L23 29L24 29L24 26L23 26L23 25L25 25L25 28L27 28L27 29L25 29L25 30L21 30L21 31L22 31L22 32L20 32L20 33L22 33L22 34L23 34L23 33L24 33L24 32L26 32L26 31L28 31L28 30L27 30L27 29L28 29L28 28L27 28L27 27L26 27L26 24L27 24L27 21L28 21L28 20L29 20L29 19L28 19L28 20L27 20L27 19L26 19L26 17L25 17L25 20L23 20L23 19L24 19L24 18L22 18L22 20L21 20L21 18L19 18L19 17L22 17L22 16L23 16L23 15L24 15L24 16L26 16L26 15L27 15L27 18L28 18L28 17L29 17L29 16L28 16L28 15L27 15L27 14L28 14L28 13L23 13L23 14L22 14L22 12L20 12L20 10ZM14 11L14 12L15 12L15 11ZM29 11L29 12L30 12L30 11ZM7 12L7 13L6 13L6 14L7 14L7 13L8 13L8 15L9 15L9 13L10 13L10 12ZM19 13L19 14L21 14L21 15L20 15L20 16L22 16L22 14L21 14L21 13ZM29 13L29 15L30 15L30 14L31 14L31 13ZM24 14L24 15L25 15L25 14ZM17 16L17 17L18 17L18 16ZM31 16L31 17L30 17L30 18L31 18L31 17L32 17L32 18L33 18L33 17L32 17L32 16ZM4 17L4 18L5 18L5 17ZM10 17L10 18L11 18L11 17ZM17 18L17 19L16 19L16 21L12 21L12 22L13 22L13 23L12 23L12 25L13 25L13 24L14 24L14 25L15 25L15 26L17 26L17 27L16 27L16 28L17 28L17 27L18 27L18 28L19 28L19 27L18 27L18 26L17 26L17 25L18 25L18 24L20 24L20 23L19 23L19 22L20 22L20 21L19 21L19 20L17 20L17 19L19 19L19 18ZM35 18L35 19L36 19L36 20L34 20L34 21L36 21L36 20L37 20L37 18ZM14 19L14 20L15 20L15 19ZM22 20L22 21L23 21L23 22L21 22L21 24L22 24L22 25L23 25L23 24L22 24L22 23L23 23L23 22L24 22L24 24L25 24L25 21L26 21L26 20L25 20L25 21L23 21L23 20ZM16 21L16 22L17 22L17 23L16 23L16 25L17 25L17 24L18 24L18 21ZM30 21L30 22L31 22L31 21ZM33 22L33 23L34 23L34 22ZM14 23L14 24L15 24L15 23ZM10 24L10 25L11 25L11 24ZM29 24L29 25L31 25L31 24ZM14 27L14 28L15 28L15 27ZM34 27L34 28L35 28L35 27ZM21 28L21 29L22 29L22 28ZM29 29L29 32L32 32L32 29ZM34 29L34 31L33 31L33 32L35 32L35 29ZM18 30L18 31L14 31L14 32L18 32L18 33L19 33L19 31L20 31L20 30ZM30 30L30 31L31 31L31 30ZM9 32L9 33L10 33L10 32ZM22 32L22 33L23 33L23 32ZM35 33L35 34L36 34L36 33ZM16 34L16 35L17 35L17 34ZM28 35L28 36L30 36L30 35ZM0 0L0 7L7 7L7 0ZM1 1L1 6L6 6L6 1ZM2 2L2 5L5 5L5 2ZM30 0L30 7L37 7L37 0ZM31 1L31 6L36 6L36 1ZM32 2L32 5L35 5L35 2ZM0 30L0 37L7 37L7 30ZM1 31L1 36L6 36L6 31ZM2 32L2 35L5 35L5 32Z" fill="#000000"/></g></g></svg>
